<?xml version="1.0" encoding="UTF-8"?>
<!DOCTYPE svg PUBLIC "-//W3C//DTD SVG 1.1//EN" "http://www.w3.org/Graphics/SVG/1.1/DTD/svg11.dtd">
<svg xmlns="http://www.w3.org/2000/svg" version="1.1" width="64px" height="79px" style="shape-rendering:geometricPrecision; text-rendering:geometricPrecision; image-rendering:optimizeQuality; fill-rule:evenodd; clip-rule:evenodd" xmlns:xlink="http://www.w3.org/1999/xlink">
<g><path style="opacity:1" fill="#6fc3ad" d="M 26.5,1.5 C 26.5442,3.79465 26.0442,6.12798 25,8.5C 24,7.16667 23,5.83333 22,4.5C 21.5,5.66667 20.6667,6.5 19.5,7C 19.6243,7.9699 19.6243,8.80323 19.5,9.5C 19.6107,10.1174 19.944,10.6174 20.5,11C 19.5289,12.041 18.5289,12.8743 17.5,13.5C 17.44,12.9569 17.1067,12.6236 16.5,12.5C 15.3044,12.8457 15.3044,13.3457 16.5,14C 15.9056,14.4643 15.2389,14.631 14.5,14.5C 15.2516,8.7894 18.085,4.45607 23,1.5C 24.1174,1.2642 25.284,1.2642 26.5,1.5 Z"/></g>
<g><path style="opacity:1" fill="#36d7b6" d="M 26.5,1.5 C 27.038,3.11723 27.3713,4.7839 27.5,6.5C 28.5,6.5 29.5,6.5 30.5,6.5C 30.5,7.83333 30.5,9.16667 30.5,10.5C 29.209,10.2627 28.209,10.596 27.5,11.5C 26.5,12.5 25.5,13.5 24.5,14.5C 24.6567,13.1266 24.49,11.7932 24,10.5C 22.6123,10.7856 21.1123,10.4523 19.5,9.5C 19.6243,8.80323 19.6243,7.9699 19.5,7C 20.6667,6.5 21.5,5.66667 22,4.5C 23,5.83333 24,7.16667 25,8.5C 26.0442,6.12798 26.5442,3.79465 26.5,1.5 Z"/></g>
<g><path style="opacity:1" fill="#68bbd1" d="M 30.5,-0.5 C 30.8333,-0.5 31.1667,-0.5 31.5,-0.5C 33.5401,1.14198 35.7068,1.80865 38,1.5C 39.8381,3.00585 41.6715,4.50585 43.5,6C 43.1667,6.33333 42.8333,6.66667 42.5,7C 45.216,8.50962 46.8827,10.343 47.5,12.5C 46.7573,13.1818 46.0906,13.8485 45.5,14.5C 43.1095,12.5321 40.7761,10.8655 38.5,9.5C 36.5905,8.02543 35.4238,6.02543 35,3.5C 34.0255,5.87759 33.3589,5.54426 33,2.5C 32.0855,6.1851 31.4189,5.85177 31,1.5C 29.9926,3.74156 29.1593,3.40823 28.5,0.5C 29.4916,0.67158 30.1583,0.338246 30.5,-0.5 Z"/></g>
<g><path style="opacity:1" fill="#2ec7ce" d="M 28.5,0.5 C 29.1593,3.40823 29.9926,3.74156 31,1.5C 31.4189,5.85177 32.0855,6.1851 33,2.5C 33.3589,5.54426 34.0255,5.87759 35,3.5C 35.4238,6.02543 36.5905,8.02543 38.5,9.5C 38.5,10.5 38.5,11.5 38.5,12.5C 36.1175,10.9539 33.4509,10.2872 30.5,10.5C 30.5,9.16667 30.5,7.83333 30.5,6.5C 29.5,6.5 28.5,6.5 27.5,6.5C 27.3713,4.7839 27.038,3.11723 26.5,1.5C 27.1667,1.16667 27.8333,0.833333 28.5,0.5 Z"/></g>
<g><path style="opacity:1" fill="#13e9a9" d="M 19.5,9.5 C 21.1123,10.4523 22.6123,10.7856 24,10.5C 24.49,11.7932 24.6567,13.1266 24.5,14.5C 23.5386,16.2646 23.2053,18.2646 23.5,20.5C 20.5,20.5 17.5,20.5 14.5,20.5C 14.5,19.5 14.5,18.5 14.5,17.5C 15.8734,17.6567 17.2068,17.49 18.5,17C 17.3659,15.984 17.6992,15.3173 19.5,15C 18.5842,14.7216 17.9175,14.2216 17.5,13.5C 18.5289,12.8743 19.5289,12.041 20.5,11C 19.944,10.6174 19.6107,10.1174 19.5,9.5 Z"/></g>
<g><path style="opacity:1" fill="#2eb6e6" d="M 38.5,9.5 C 40.7761,10.8655 43.1095,12.5321 45.5,14.5C 46.4916,14.3284 47.1583,14.6618 47.5,15.5C 43.7113,16.5961 43.7113,17.2627 47.5,17.5C 47.5,18.5 47.5,19.5 47.5,20.5C 44.4816,20.6646 41.4816,20.498 38.5,20C 39.7785,17.5024 39.7785,15.0024 38.5,12.5C 38.5,11.5 38.5,10.5 38.5,9.5 Z"/></g>
<g><path style="opacity:1" fill="#53d0a2" d="M 17.5,13.5 C 17.9175,14.2216 18.5842,14.7216 19.5,15C 17.6992,15.3173 17.3659,15.984 18.5,17C 17.2068,17.49 15.8734,17.6567 14.5,17.5C 14.5,18.5 14.5,19.5 14.5,20.5C 17.5,20.5 20.5,20.5 23.5,20.5C 23.2053,18.2646 23.5386,16.2646 24.5,14.5C 24.5,16.5 24.5,18.5 24.5,20.5C 24.5,21.1667 24.1667,21.5 23.5,21.5C 20.1667,21.5 16.8333,21.5 13.5,21.5C 13.5469,18.702 13.8803,16.3687 14.5,14.5C 15.2389,14.631 15.9056,14.4643 16.5,14C 15.3044,13.3457 15.3044,12.8457 16.5,12.5C 17.1067,12.6236 17.44,12.9569 17.5,13.5 Z"/></g>
<g><path style="opacity:1" fill="#64bfd7" d="M 27.5,11.5 C 28.209,10.596 29.209,10.2627 30.5,10.5C 33.4509,10.2872 36.1175,10.9539 38.5,12.5C 39.7785,15.0024 39.7785,17.5024 38.5,20C 41.4816,20.498 44.4816,20.6646 47.5,20.5C 47.5,19.5 47.5,18.5 47.5,17.5C 43.7113,17.2627 43.7113,16.5961 47.5,15.5C 48.3414,17.3792 48.6747,19.3792 48.5,21.5C 45.2869,21.19 42.2869,21.5233 39.5,22.5C 38.1667,21.8333 37.1667,20.8333 36.5,19.5C 37.5819,12.9278 34.5819,10.2611 27.5,11.5 Z"/></g>
<g><path style="opacity:0.996" fill="#1375fa" d="M 32.5,16.5 C 32.8333,16.5 33.1667,16.5 33.5,16.5C 35.5123,20.6974 38.1789,24.5308 41.5,28C 42.7932,28.49 44.1266,28.6567 45.5,28.5C 45.5858,29.4959 45.2524,30.3292 44.5,31C 48.9725,32.0202 49.3059,33.1868 45.5,34.5C 38.7616,28.3759 31.0949,27.0426 22.5,30.5C 21.3569,30.0919 20.3569,29.4252 19.5,28.5C 19.8457,27.3044 20.3457,27.3044 21,28.5C 21.4828,27.552 21.6495,26.552 21.5,25.5C 23.1992,25.6602 24.8659,25.4935 26.5,25C 27.6508,22.5359 28.6508,20.0359 29.5,17.5C 30.791,17.7373 31.791,17.404 32.5,16.5 Z"/></g>
<g><path style="opacity:0.971" fill="#1a6bd5" d="M 32.5,16.5 C 31.791,17.404 30.791,17.7373 29.5,17.5C 28.6508,20.0359 27.6508,22.5359 26.5,25C 24.8659,25.4935 23.1992,25.6602 21.5,25.5C 21.6495,26.552 21.4828,27.552 21,28.5C 20.3457,27.3044 19.8457,27.3044 19.5,28.5C 20.3569,29.4252 21.3569,30.0919 22.5,30.5C 21.205,31.4884 19.8717,32.4884 18.5,33.5C 18.1436,31.8102 17.1436,30.8102 15.5,30.5C 18.1667,27.5 20.8333,24.5 23.5,21.5C 24.1667,21.5 24.5,21.1667 24.5,20.5C 26.2959,19.2073 27.9625,17.7073 29.5,16C 30.7494,15.2599 31.7494,15.4265 32.5,16.5 Z"/></g>
<g><path style="opacity:0.891" fill="#1b60c2" d="M 33.5,16.5 C 34.8333,17.1667 35.8333,18.1667 36.5,19.5C 37.1667,20.8333 38.1667,21.8333 39.5,22.5C 41.8333,24.1667 43.8333,26.1667 45.5,28.5C 44.1266,28.6567 42.7932,28.49 41.5,28C 38.1789,24.5308 35.5123,20.6974 33.5,16.5 Z"/></g>
<g><path style="opacity:0.996" fill="#c6d1eb" d="M 45.5,34.5 C 47.2322,37.2096 48.8989,39.8763 50.5,42.5C 50.5,42.8333 50.5,43.1667 50.5,43.5C 50.8064,46.3854 50.4731,49.0521 49.5,51.5C 49.631,50.7611 49.4643,50.0944 49,49.5C 48.7216,50.4158 48.2216,51.0825 47.5,51.5C 49.0432,44.389 47.0432,38.7224 41.5,34.5C 34.8333,29.1667 28.1667,29.1667 21.5,34.5C 19.2901,34.894 17.9568,36.2273 17.5,38.5C 15.6251,41.8476 14.6251,45.5142 14.5,49.5C 13.6618,49.8417 13.3284,50.5084 13.5,51.5C 13.1667,51.5 12.8333,51.5 12.5,51.5C 12.5,51.1667 12.5,50.8333 12.5,50.5C 11.9175,43.7832 13.9175,38.1165 18.5,33.5C 19.8717,32.4884 21.205,31.4884 22.5,30.5C 31.0949,27.0426 38.7616,28.3759 45.5,34.5 Z"/></g>
<g><path style="opacity:0.997" fill="#1a74fa" d="M 41.5,34.5 C 39.2651,35.2481 39.5984,36.0814 42.5,37C 40.2305,37.7581 38.0639,37.5914 36,36.5C 34.3831,37.5358 34.2164,38.7025 35.5,40C 33.5681,41.4585 31.5681,42.6252 29.5,43.5C 29.1667,43.5 28.8333,43.5 28.5,43.5C 27.8333,43.5 27.1667,43.5 26.5,43.5C 25.3677,41.5331 25.7011,39.6998 27.5,38C 25.5,37.6667 23.5,37.3333 21.5,37C 22.7736,36.0228 22.7736,35.1894 21.5,34.5C 28.1667,29.1667 34.8333,29.1667 41.5,34.5 Z"/></g>
<g><path style="opacity:0.996" fill="#2279f8" d="M 21.5,34.5 C 22.7736,35.1894 22.7736,36.0228 21.5,37C 23.5,37.3333 25.5,37.6667 27.5,38C 25.7011,39.6998 25.3677,41.5331 26.5,43.5C 25.8333,43.5 25.1667,43.5 24.5,43.5C 23.1667,43.5 21.8333,43.5 20.5,43.5C 20.2231,41.2719 19.2231,39.6053 17.5,38.5C 17.9568,36.2273 19.2901,34.894 21.5,34.5 Z"/></g>
<g><path style="opacity:0.996" fill="#2377fa" d="M 41.5,34.5 C 47.0432,38.7224 49.0432,44.389 47.5,51.5C 47.2964,53.6854 46.6298,55.6854 45.5,57.5C 40.7461,56.033 40.4128,54.033 44.5,51.5C 44.5,48.8333 44.5,46.1667 44.5,43.5C 39.5,43.5 34.5,43.5 29.5,43.5C 31.5681,42.6252 33.5681,41.4585 35.5,40C 34.2164,38.7025 34.3831,37.5358 36,36.5C 38.0639,37.5914 40.2305,37.7581 42.5,37C 39.5984,36.0814 39.2651,35.2481 41.5,34.5 Z"/></g>
<g><path style="opacity:0.962" fill="#1966cf" d="M 54.5,37.5 C 57.5,40.1667 60.5,42.8333 63.5,45.5C 63.5,46.8333 63.5,48.1667 63.5,49.5C 61.7721,51.2255 59.7721,52.5589 57.5,53.5C 57.178,51.2776 57.8446,49.4443 59.5,48C 58.6634,46.9887 58.33,45.8221 58.5,44.5C 56.326,44.9202 54.326,44.9202 52.5,44.5C 53.3249,42.1987 53.9916,39.8654 54.5,37.5 Z"/></g>
<g><path style="opacity:0.996" fill="#1f68e1" d="M 45.5,28.5 C 48.8333,31.1667 51.8333,34.1667 54.5,37.5C 53.603,38.5981 52.7697,38.5981 52,37.5C 51.5078,38.549 51.6744,39.549 52.5,40.5C 52.1445,41.5223 51.4778,42.189 50.5,42.5C 48.8989,39.8763 47.2322,37.2096 45.5,34.5C 49.3059,33.1868 48.9725,32.0202 44.5,31C 45.2524,30.3292 45.5858,29.4959 45.5,28.5 Z"/></g>
<g><path style="opacity:0.996" fill="#216be0" d="M 15.5,30.5 C 17.1436,30.8102 18.1436,31.8102 18.5,33.5C 13.9175,38.1165 11.9175,43.7832 12.5,50.5C 11.6773,47.023 11.1773,43.3563 11,39.5C 9.32398,40.0611 7.99064,41.0611 7,42.5C 5.89318,41.2881 5.39318,41.6214 5.5,43.5C 4.22086,44.968 2.5542,45.6347 0.5,45.5C 5.16667,40.1667 10.1667,35.1667 15.5,30.5 Z"/></g>
<g><path style="opacity:0.996" fill="#0e75fd" d="M 12.5,50.5 C 12.5,50.8333 12.5,51.1667 12.5,51.5C 11.9101,52.766 11.4101,54.0993 11,55.5C 9.83716,53.7148 9.17049,51.7148 9,49.5C 7.98398,48.3659 7.31732,48.6992 7,50.5C 6.68238,48.9391 5.84905,47.7724 4.5,47C 5.33663,45.9887 5.66997,44.8221 5.5,43.5C 5.39318,41.6214 5.89318,41.2881 7,42.5C 7.99064,41.0611 9.32398,40.0611 11,39.5C 11.1773,43.3563 11.6773,47.023 12.5,50.5 Z"/></g>
<g><path style="opacity:0.996" fill="#d7ddd7" d="M 28.5,43.5 C 28.8333,43.5 29.1667,43.5 29.5,43.5C 34.5,43.5 39.5,43.5 44.5,43.5C 44.5,46.1667 44.5,48.8333 44.5,51.5C 43.5,51.5 42.5,51.5 41.5,51.5C 41.6621,49.4727 41.4955,47.4727 41,45.5C 40.2612,47.8888 39.0946,49.8888 37.5,51.5C 37.1136,43.6019 36.1136,43.6019 34.5,51.5C 33.5344,49.604 33.2011,47.604 33.5,45.5C 32.1667,45.5 30.8333,45.5 29.5,45.5C 29.5,46.8333 29.5,48.1667 29.5,49.5C 30.675,49.281 31.675,49.6143 32.5,50.5C 32.3764,51.1067 32.0431,51.44 31.5,51.5C 30.5,51.5 29.5,51.5 28.5,51.5C 27.1667,48.8333 27.1667,46.1667 28.5,43.5 Z"/></g>
<g><path style="opacity:0.994" fill="#156ee5" d="M 5.5,43.5 C 5.66997,44.8221 5.33663,45.9887 4.5,47C 5.84905,47.7724 6.68238,48.9391 7,50.5C 7.31732,48.6992 7.98398,48.3659 9,49.5C 9.17049,51.7148 9.83716,53.7148 11,55.5C 11.4101,54.0993 11.9101,52.766 12.5,51.5C 12.8333,51.5 13.1667,51.5 13.5,51.5C 13.3433,52.8734 13.51,54.2068 14,55.5C 15.4424,57.3911 16.6091,59.3911 17.5,61.5C 15.2627,60.551 12.9294,59.8844 10.5,59.5C 6.47289,56.1396 2.80623,52.4729 -0.5,48.5C -0.5,47.5 -0.5,46.5 -0.5,45.5C -0.166667,45.5 0.166667,45.5 0.5,45.5C 2.5542,45.6347 4.22086,44.968 5.5,43.5 Z"/></g>
<g><path style="opacity:0.99" fill="#0574fd" d="M 54.5,37.5 C 53.9916,39.8654 53.3249,42.1987 52.5,44.5C 54.326,44.9202 56.326,44.9202 58.5,44.5C 58.33,45.8221 58.6634,46.9887 59.5,48C 57.8446,49.4443 57.178,51.2776 57.5,53.5C 53.5268,51.2122 51.1934,47.8788 50.5,43.5C 50.5,43.1667 50.5,42.8333 50.5,42.5C 51.4778,42.189 52.1445,41.5223 52.5,40.5C 51.6744,39.549 51.5078,38.549 52,37.5C 52.7697,38.5981 53.603,38.5981 54.5,37.5 Z"/></g>
<g><path style="opacity:0.996" fill="#b4c2e0" d="M 24.5,43.5 C 25.1667,43.5 25.8333,43.5 26.5,43.5C 27.1667,43.5 27.8333,43.5 28.5,43.5C 27.1667,46.1667 27.1667,48.8333 28.5,51.5C 27.1667,51.5 25.8333,51.5 24.5,51.5C 26.0311,50.0755 25.6977,49.4088 23.5,49.5C 23.5,48.1667 23.5,46.8333 23.5,45.5C 25.6977,45.5912 26.0311,44.9245 24.5,43.5 Z"/></g>
<g><path style="opacity:0.996" fill="#1066e6" d="M 23.5,45.5 C 23.5,46.8333 23.5,48.1667 23.5,49.5C 22.4138,49.38 21.7472,48.7133 21.5,47.5C 21.7472,46.2867 22.4138,45.62 23.5,45.5 Z"/></g>
<g><path style="opacity:0.898" fill="#1674f7" d="M 50.5,43.5 C 51.1934,47.8788 53.5268,51.2122 57.5,53.5C 56.1667,55.5 54.5,57.1667 52.5,58.5C 51.9529,53.9369 50.7862,53.6035 49,57.5C 48.6012,57.2716 48.4346,56.9382 48.5,56.5C 49.3007,54.9582 49.634,53.2915 49.5,51.5C 50.4731,49.0521 50.8064,46.3854 50.5,43.5 Z"/></g>
<g><path style="opacity:0.996" fill="#e2e8c9" d="M 20.5,43.5 C 21.8333,43.5 23.1667,43.5 24.5,43.5C 26.0311,44.9245 25.6977,45.5912 23.5,45.5C 22.4138,45.62 21.7472,46.2867 21.5,47.5C 21.7472,48.7133 22.4138,49.38 23.5,49.5C 25.6977,49.4088 26.0311,50.0755 24.5,51.5C 22.8333,51.5 21.1667,51.5 19.5,51.5C 19.1936,48.6146 19.5269,45.9479 20.5,43.5 Z"/></g>
<g><path style="opacity:0.996" fill="#2976f9" d="M 17.5,38.5 C 19.2231,39.6053 20.2231,41.2719 20.5,43.5C 19.5269,45.9479 19.1936,48.6146 19.5,51.5C 21.1667,51.5 22.8333,51.5 24.5,51.5C 25.8333,51.5 27.1667,51.5 28.5,51.5C 29.5,51.5 30.5,51.5 31.5,51.5C 30.3915,52.29 29.0581,52.79 27.5,53C 26.7476,53.6708 26.4142,54.5041 26.5,55.5C 25.5,55.5 24.5,55.5 23.5,55.5C 23.1667,57.5 22.8333,59.5 22.5,61.5C 18.2973,58.4019 15.6306,54.4019 14.5,49.5C 14.6251,45.5142 15.6251,41.8476 17.5,38.5 Z"/></g>
<g><path style="opacity:0.996" fill="#226ff8" d="M 37.5,51.5 C 38.2625,52.2679 39.2625,52.7679 40.5,53C 37.6385,52.9698 35.3052,53.8031 33.5,55.5C 33.6309,56.3764 33.2975,57.0431 32.5,57.5C 30.8035,56.6364 29.6368,55.3031 29,53.5C 28.5831,54.756 27.7498,55.4226 26.5,55.5C 26.4142,54.5041 26.7476,53.6708 27.5,53C 29.0581,52.79 30.3915,52.29 31.5,51.5C 32.0431,51.44 32.3764,51.1067 32.5,50.5C 31.675,49.6143 30.675,49.281 29.5,49.5C 29.5,48.1667 29.5,46.8333 29.5,45.5C 30.8333,45.5 32.1667,45.5 33.5,45.5C 33.2011,47.604 33.5344,49.604 34.5,51.5C 36.1136,43.6019 37.1136,43.6019 37.5,51.5 Z"/></g>
<g><path style="opacity:0.996" fill="#2b78f6" d="M 44.5,51.5 C 40.4128,54.033 40.7461,56.033 45.5,57.5C 40.7968,62.9544 34.7968,65.121 27.5,64C 25.3474,63.9005 23.6808,63.0672 22.5,61.5C 26.1122,62.5114 29.7789,62.6781 33.5,62C 33.1667,61.6667 32.8333,61.3333 32.5,61C 36.0985,59.661 36.4318,57.8276 33.5,55.5C 35.3052,53.8031 37.6385,52.9698 40.5,53C 39.2625,52.7679 38.2625,52.2679 37.5,51.5C 39.0946,49.8888 40.2612,47.8888 41,45.5C 41.4955,47.4727 41.6621,49.4727 41.5,51.5C 42.5,51.5 43.5,51.5 44.5,51.5 Z"/></g>
<g><path style="opacity:0.996" fill="#cad5e8" d="M 14.5,49.5 C 15.6306,54.4019 18.2973,58.4019 22.5,61.5C 23.6808,63.0672 25.3474,63.9005 27.5,64C 34.7968,65.121 40.7968,62.9544 45.5,57.5C 46.6298,55.6854 47.2964,53.6854 47.5,51.5C 48.2216,51.0825 48.7216,50.4158 49,49.5C 49.4643,50.0944 49.631,50.7611 49.5,51.5C 49.634,53.2915 49.3007,54.9582 48.5,56.5C 43.7098,64.2531 36.7098,67.5864 27.5,66.5C 26.791,65.596 25.791,65.2627 24.5,65.5C 22.3021,63.9019 19.9687,62.5686 17.5,61.5C 16.6091,59.3911 15.4424,57.3911 14,55.5C 13.51,54.2068 13.3433,52.8734 13.5,51.5C 13.3284,50.5084 13.6618,49.8417 14.5,49.5 Z"/></g>
<g><path style="opacity:0.996" fill="#0375fe" d="M 33.5,55.5 C 36.4318,57.8276 36.0985,59.661 32.5,61C 32.8333,61.3333 33.1667,61.6667 33.5,62C 29.7789,62.6781 26.1122,62.5114 22.5,61.5C 22.8333,59.5 23.1667,57.5 23.5,55.5C 24.5,55.5 25.5,55.5 26.5,55.5C 27.7498,55.4226 28.5831,54.756 29,53.5C 29.6368,55.3031 30.8035,56.6364 32.5,57.5C 33.2975,57.0431 33.6309,56.3764 33.5,55.5 Z"/></g>
<g><path style="opacity:0.996" fill="#1f66dc" d="M 10.5,59.5 C 12.9294,59.8844 15.2627,60.551 17.5,61.5C 19.9687,62.5686 22.3021,63.9019 24.5,65.5C 23.791,66.404 22.791,66.7373 21.5,66.5C 21.9209,68.9099 23.2542,70.7432 25.5,72C 24.944,72.3826 24.6107,72.8826 24.5,73.5C 19.4458,69.1125 14.7792,64.4458 10.5,59.5 Z"/></g>
<g><path style="opacity:0.996" fill="#1476fb" d="M 24.5,65.5 C 25.791,65.2627 26.791,65.596 27.5,66.5C 29.3781,67.3804 32.0448,67.8804 35.5,68C 32.978,69.6859 33.3113,71.0192 36.5,72C 33.7798,73.5656 31.2798,74.7323 29,75.5C 27.8615,75.0109 26.6948,74.6775 25.5,74.5C 24.8333,74.5 24.5,74.1667 24.5,73.5C 24.6107,72.8826 24.944,72.3826 25.5,72C 23.2542,70.7432 21.9209,68.9099 21.5,66.5C 22.791,66.7373 23.791,66.404 24.5,65.5 Z"/></g>
<g><path style="opacity:0.872" fill="#1574f3" d="M 52.5,58.5 C 46.1112,65.2194 39.7778,71.8861 33.5,78.5C 31.8333,78.5 30.1667,78.5 28.5,78.5C 27.5,77.1667 26.5,75.8333 25.5,74.5C 26.6948,74.6775 27.8615,75.0109 29,75.5C 31.2798,74.7323 33.7798,73.5656 36.5,72C 33.3113,71.0192 32.978,69.6859 35.5,68C 32.0448,67.8804 29.3781,67.3804 27.5,66.5C 36.7098,67.5864 43.7098,64.2531 48.5,56.5C 48.4346,56.9382 48.6012,57.2716 49,57.5C 50.7862,53.6035 51.9529,53.9369 52.5,58.5 Z"/></g>
</svg>
