<?xml version="1.0" standalone="no"?>
<!DOCTYPE svg PUBLIC "-//W3C//DTD SVG 20010904//EN"
 "http://www.w3.org/TR/2001/REC-SVG-20010904/DTD/svg10.dtd">
<svg version="1.0" xmlns="http://www.w3.org/2000/svg"
 width="269.000000pt" height="308.000000pt" viewBox="0 0 269.000000 308.000000"
 preserveAspectRatio="xMidYMid meet">
<metadata>
Created by potrace 1.16, written by Peter Selinger 2001-2019
</metadata>
<g transform="translate(0.000000,308.000000) scale(0.100000,-0.100000)"
fill="#002366" stroke="none">
<path d="M1271 3039 c-25 -11 -149 -80 -275 -153 -127 -74 -379 -220 -561
-324 -181 -105 -345 -201 -362 -214 -18 -13 -42 -42 -53 -65 -19 -42 -20 -60
-20 -739 0 -493 3 -708 11 -735 22 -70 -11 -49 839 -539 223 -129 423 -240
444 -247 24 -9 55 -12 77 -8 22 4 187 93 406 219 202 117 472 272 598 345 127
73 241 143 253 155 54 48 52 20 52 803 0 699 -1 729 -19 759 -23 38 -62 68
-156 121 -63 36 -580 334 -918 529 -214 124 -234 131 -316 93z m110 -630 c48
-25 44 -105 -7 -128 -35 -16 -48 -14 -78 10 -69 54 7 160 85 118z m239 -99
c15 -28 12 -66 -7 -88 -54 -63 -162 5 -122 77 21 37 55 51 90 39 16 -6 34 -18
39 -28z m-430 -10 c30 -55 -7 -113 -67 -108 -76 6 -98 104 -30 133 36 15 82 3
97 -25z m-156 -151 c50 -40 23 -129 -40 -129 -58 0 -95 50 -74 101 20 48 72
61 114 28z m711 -4 c48 -47 17 -125 -51 -125 -76 0 -101 112 -31 140 37 15 57
11 82 -15z m-355 -100 c66 -19 112 -106 91 -175 -35 -117 -199 -140 -261 -37
-34 55 -22 148 24 186 22 18 88 41 106 36 8 -2 26 -7 40 -10z m-292 -175 c52
-44 99 -80 107 -80 7 0 18 -7 25 -15 10 -12 10 -15 -3 -15 -31 0 -64 19 -137
82 -82 71 -109 88 -127 81 -31 -11 -9 -49 78 -131 124 -119 149 -158 149 -237
0 -34 5 -66 12 -73 8 -8 56 -12 149 -12 155 0 149 -3 149 82 0 73 23 111 137
230 57 58 103 111 103 116 0 5 -7 15 -15 22 -18 15 -58 -9 -151 -92 -55 -49
-108 -77 -121 -64 -3 2 8 13 24 22 15 10 57 44 93 75 86 74 110 89 140 89 34
0 50 -17 50 -53 0 -24 -19 -49 -98 -131 -129 -132 -132 -137 -132 -214 0 -53
-4 -67 -25 -87 -23 -24 -29 -25 -158 -25 -171 0 -177 4 -186 111 -7 88 -17
103 -128 209 -115 110 -131 140 -97 174 32 32 65 19 162 -64z m-255 -627 c34
-19 45 -29 33 -31 -10 -2 -15 -10 -12 -17 2 -7 19 -66 37 -130 26 -96 36 -119
55 -127 26 -12 31 -24 12 -30 -31 -11 5 -165 45 -199 18 -15 19 -18 5 -19 -9
0 -30 -11 -46 -25 l-29 -24 -54 27 c-30 15 -56 28 -58 29 -2 2 1 8 6 15 7 9
-5 70 -37 193 -27 99 -50 173 -53 165 -19 -57 -48 -192 -42 -198 4 -4 27 -6
52 -5 l45 2 -28 -30 c-15 -16 -45 -34 -65 -39 -30 -8 -39 -16 -44 -40 -4 -16
-4 -38 -1 -47 3 -14 -8 -24 -52 -45 l-56 -27 -22 25 c-13 13 -30 24 -39 24
-21 0 -19 13 4 27 11 7 26 39 36 78 15 55 16 73 7 98 -11 28 -10 33 12 52 29
25 95 253 76 265 -14 9 3 24 51 44 53 23 105 20 162 -11z m519 2 c29 -14 69
-25 89 -25 l37 0 -6 -47 c-5 -47 -33 -116 -51 -127 -5 -3 -19 14 -31 39 -60
124 -172 86 -200 -67 -12 -64 -1 -158 24 -207 47 -89 141 -78 181 21 l17 42
19 -24 c21 -28 35 -67 42 -121 l5 -37 -46 -7 c-25 -4 -65 -16 -89 -27 l-42
-20 -65 26 c-35 14 -77 26 -91 26 -22 0 -25 3 -16 14 9 10 7 17 -6 27 -9 8
-32 48 -50 89 -19 41 -41 82 -49 91 -13 14 -13 18 0 28 8 7 17 31 21 54 11 71
26 110 57 149 16 21 28 46 26 55 -2 14 7 19 43 24 25 4 63 16 85 28 21 11 40
20 41 21 0 0 25 -11 55 -25z m299 8 c8 -9 30 -23 49 -31 32 -13 33 -15 16 -28
-18 -13 -18 -15 6 -51 14 -21 49 -63 77 -93 l51 -54 56 54 c75 75 101 117 86
141 -16 25 -15 29 6 29 9 0 30 11 47 24 l29 24 36 -24 c19 -13 40 -24 47 -24
7 0 13 -7 13 -15 0 -8 -4 -15 -10 -15 -6 0 -10 -47 -10 -120 0 -113 1 -120 22
-131 l22 -12 -22 -15 c-20 -13 -22 -23 -22 -103 0 -48 5 -91 10 -94 14 -8 13
-25 -2 -25 -6 0 -26 -11 -44 -25 -40 -31 -39 -31 -76 0 -16 14 -36 25 -44 25
-16 0 -18 12 -5 26 10 10 20 264 11 264 -3 0 -38 -31 -77 -68 l-72 -68 -66 63
c-36 35 -70 63 -76 63 -5 0 -9 -53 -9 -125 0 -105 2 -125 17 -133 14 -8 11
-12 -18 -27 -19 -10 -41 -24 -50 -32 -14 -12 -23 -10 -68 18 -41 26 -49 34
-37 41 12 7 16 27 16 88 0 87 -5 110 -26 110 -20 0 -17 14 6 35 18 16 20 31
20 128 0 92 -3 112 -17 122 -16 12 -14 14 17 27 19 8 41 22 49 31 7 10 17 17
21 17 4 0 14 -7 21 -17z"/>
<path d="M1283 2011 c-40 -25 -55 -54 -55 -103 2 -107 124 -155 198 -77 24 25
29 39 29 79 0 42 -5 54 -31 81 -40 40 -96 48 -141 20z"/>
</g>
</svg>
