<?xml version="1.0" standalone="no"?>
<!DOCTYPE svg PUBLIC "-//W3C//DTD SVG 20010904//EN"
 "http://www.w3.org/TR/2001/REC-SVG-20010904/DTD/svg10.dtd">
<svg version="1.0" xmlns="http://www.w3.org/2000/svg"
 width="120.000000pt" height="160.000000pt" viewBox="0 0 120.000000 160.000000"
 preserveAspectRatio="xMidYMid meet">

<g transform="translate(0.000000,160.000000) scale(0.100000,-0.100000)"
fill="#000000" stroke="none">
<path d="M110 805 l0 -735 320 0 c299 0 325 1 383 21 98 33 194 115 239 204
45 88 48 133 48 702 l0 541 -495 1 -495 2 0 -736z m900 290 l0 -325 -400 0
-400 0 0 325 0 325 400 0 400 0 0 -325z m-36 -466 c20 -16 26 -29 26 -59 0
-30 -6 -43 -26 -59 -15 -12 -37 -21 -49 -21 -12 0 -34 9 -49 21 -20 16 -26 29
-26 59 0 30 6 43 26 59 15 12 37 21 49 21 12 0 34 -9 49 -21z m-544 -64 l0
-45 45 0 45 0 0 -45 0 -45 -45 0 -45 0 0 -45 0 -45 -50 0 -50 0 0 45 0 45 -45
0 -45 0 0 45 0 45 45 0 45 0 0 45 0 45 50 0 50 0 0 -45z m354 -136 c29 -34 31
-47 15 -82 -22 -49 -86 -61 -124 -22 -35 35 -34 87 3 114 40 30 75 27 106 -10z"/>
<path fill="#FC46AA" d="M110 805 l0 -735 320 0 c299 0 325 1 383 21 98 33 194 115 239 204
45 88 48 133 48 702 l0 541 -495 1 -495 2 0 -736z m900 290 l0 -325 -400 0
-400 0 0 325 0 325 400 0 400 0 0 -325z m-36 -466 c20 -16 26 -29 26 -59 0
-30 -6 -43 -26 -59 -15 -12 -37 -21 -49 -21 -12 0 -34 9 -49 21 -20 16 -26 29
-26 59 0 30 6 43 26 59 15 12 37 21 49 21 12 0 34 -9 49 -21z m-544 -64 l0
-45 45 0 45 0 0 -45 0 -45 -45 0 -45 0 0 -45 0 -45 -50 0 -50 0 0 45 0 45 -45
0 -45 0 0 45 0 45 45 0 45 0 0 45 0 45 50 0 50 0 0 -45z m354 -136 c29 -34 31
-47 15 -82 -22 -49 -86 -61 -124 -22 -35 35 -34 87 3 114 40 30 75 27 106 -10z"/>
</g>
</svg>
